<?xml version="1.0" encoding="utf-8"?>
<!-- Svg Vector Icons : http://www.onlinewebfonts.com/icon -->
<!DOCTYPE svg PUBLIC "-//W3C//DTD SVG 1.1//EN" "http://www.w3.org/Graphics/SVG/1.1/DTD/svg11.dtd">
<svg version="1.1" xmlns="http://www.w3.org/2000/svg" xmlns:xlink="http://www.w3.org/1999/xlink" x="0px" y="0px" viewBox="0 0 256 256" enable-background="new 0 0 256 256" xml:space="preserve">
<metadata> Svg Vector Icons : http://www.onlinewebfonts.com/icon </metadata>
<g><g><path fill="#000000" d="M128,113.7c26.7,0,48.4-23.3,48.4-51.8c0-28.6-21.7-51.8-48.4-51.8c-26.7,0-48.4,23.3-48.4,51.8C79.6,90.4,101.3,113.7,128,113.7z"/><path fill="#000000" d="M122.4,189.4L167,126c-9.7-2.5-23.1-5.1-38.8-5.1c-1.1,0-28.5-2.2-56.9,10.9c0,0-3.6,0.4-10.7,11.3c-10.8,17.6-27.5,43.3-32.4,51.9c-3.4,5.6-12.1,16.9-6.5,28.8c6.2,11.8,11.5,20.8,13.5,22.3c6.4,0,18.6,0,26.8,0C61.6,225.7,80.4,192.4,122.4,189.4z"/><path fill="#000000" d="M227.9,195.2c-8.2-14.1-26.6-42.8-28-45.4c-1.9-3.4-7.9-16.3-19.2-19.8c-1.2-0.4-2.8-0.9-4.6-1.4l-42.7,60.7c40.8,2.5,61,34.3,61,56.6l24.5,0c0,0,2.6,0.3,15.4-22.9C239,210.9,233.8,205.6,227.9,195.2z"/><path fill="#000000" d="M128,204.4c-28.2,0-51,18.3-51,41.6c35.9,0,59.3,0,102,0C179,222.6,156.1,204.4,128,204.4z"/></g></g>
</svg>